<?xml version="1.0" encoding="utf-8"?>
<!-- Generator: Adobe Illustrator 18.0.0, SVG Export Plug-In . SVG Version: 6.00 Build 0)  -->
<!DOCTYPE svg PUBLIC "-//W3C//DTD SVG 1.1//EN" "http://www.w3.org/Graphics/SVG/1.1/DTD/svg11.dtd">
<svg version="1.1" id="Layer_1" xmlns="http://www.w3.org/2000/svg" xmlns:xlink="http://www.w3.org/1999/xlink" x="0px" y="0px"
	 viewBox="0 0 481.1 316.1" enable-background="new 0 0 481.1 316.1" xml:space="preserve">
<g id="THpQ8e.tif">
	<g>
		<path fill="#FFFFFF" d="M0,289.3c20.1-15.7,36.7-33.6,49.8-54.6c11.5-18.6,19.8-38.4,23.3-60.1c0.5-3.4,0.4-6.1-2-9.2
			c-8.2-10.4-4.3-25.3,7.4-31.5c2.3-1.2,4.3-3.4,5.7-5.6c4.4-7.4,8.5-15,13-23c-1.6-0.5-3.4-1.2-5.3-1.8
			c-20.5-6.3-41-12.6-61.5-18.8c-4-1.2-6.9-3.3-7.7-7.5c-0.9-4.8,1.9-8.7,7.8-10.5C48.6,61,66.9,55.4,85.2,49.8
			C138.5,33.5,191.7,17.1,245.1,1c3.9-1.2,8.7-1.3,12.6-0.2c71.6,21.7,143.2,43.7,214.7,65.7c2.5,0.8,5.4,2.3,6.9,4.3
			c3.9,5.2,1.4,11.4-5.4,13.5c-17.9,5.6-35.9,11-53.9,16.5c-53.7,16.5-107.5,33-161.3,49.2c-4.2,1.3-9.4,1.3-13.5,0.1
			c-30.8-9.1-61.4-18.6-92.1-28c-1.2-0.4-2.4-0.9-4.7-1.7c2.9-1.6,4.8-2.8,6.8-3.8c26.7-13.5,55.2-21.3,84.3-27.1
			c5.5-1.1,11.2-1.9,16.7-3c6.4-1.3,10.2-6.6,9.3-12.7c-0.9-5.9-6.4-10.4-12.7-9.4c-40.1,6.4-79.3,15.8-114.9,36.5
			c-12.7,7.4-23.8,16.5-31.1,29.6c-2.3,4.2-3.5,7.7-0.4,12.7c5.3,8.3,2.9,18.2-4.4,25.5c-1.5,1.5-2.7,4.2-2.6,6.3
			c1.4,23.8,1.5,47.6-2,71.3c-2.7,18-6.9,35.7-17.1,51.2c-6.3,9.5-14.3,16.9-26.1,18.3c-4.7,0.5-9.7,0.3-14.3-0.8
			C23.8,311.1,11.6,301.2,0,289.3z"/>
		<path fill="#FFFFFF" d="M139.8,141.5c30.9,9.5,60.6,17.8,89.7,27.7c15.3,5.2,29.3,5.1,44.6-0.1c27.7-9.4,55.9-17.4,83.9-25.9
			c1.4-0.4,2.9-0.7,4.7-1.2c5.9,16.3,11.4,32.4,13.6,49.5c1.1,8.8-1.8,16.4-6.7,23.4c-9.4,13.5-22.1,23.5-36.1,31.8
			c-55.7,33.1-128.7,29.5-178.8-9.2c-7-5.4-13.2-12.2-18.9-19.1c-8.1-9.8-10.8-21.3-7.5-33.8C131.9,170.5,135.9,156.2,139.8,141.5z"
			/>
	</g>
</g>
</svg>
