<?xml version="1.0" encoding="utf-8"?>
<!-- Generator: Adobe Illustrator 18.0.0, SVG Export Plug-In . SVG Version: 6.00 Build 0)  -->
<!DOCTYPE svg PUBLIC "-//W3C//DTD SVG 1.1//EN" "http://www.w3.org/Graphics/SVG/1.1/DTD/svg11.dtd">
<svg version="1.1" id="Layer_1" xmlns="http://www.w3.org/2000/svg" xmlns:xlink="http://www.w3.org/1999/xlink" x="0px" y="0px"
	 viewBox="0 0 327 478.5" enable-background="new 0 0 327 478.5" xml:space="preserve">
<g id="YDtIlV.tif">
	<g>
		<path fill="#FFFFFF" d="M102.6,0.2C127.4,0.1,152.2,0,177,0c26.1,0,52.3,0,78.4,0.1c-6.8,17.1-13.6,34.3-20.5,51.4
			c-12,29.8-24.1,59.5-36.2,89.2c-2.3,5.6-2.3,5.7,3.8,5.7c39.3,0,78.6,0,118,0c1.8,0,3.6,0,6.5,0
			C236.5,257.7,146.8,368.1,57.1,478.5c-0.4-0.3-0.8-0.6-1.2-0.9c10.8-28.7,21.6-57.4,32.4-86.1c16.7-44.4,33.4-88.7,50-133.1
			c2-5.4,2-5.4-4.1-5.4c-42.7,0-85.3,0-128,0c-1.8,0-3.6,0-6.2,0C34.3,168.3,68.5,84.2,102.6,0.2z"/>
	</g>
</g>
</svg>
