<?xml version="1.0" encoding="utf-8"?>
<!-- Generator: Adobe Illustrator 18.0.0, SVG Export Plug-In . SVG Version: 6.00 Build 0)  -->
<!DOCTYPE svg PUBLIC "-//W3C//DTD SVG 1.1//EN" "http://www.w3.org/Graphics/SVG/1.1/DTD/svg11.dtd">
<svg version="1.1" id="Layer_1" xmlns="http://www.w3.org/2000/svg" xmlns:xlink="http://www.w3.org/1999/xlink" x="0px" y="0px"
	 viewBox="0 0 241 236" enable-background="new 0 0 241 236" xml:space="preserve">
<g>
	<path fill="#FFFFFF" d="M155.5,141.5C155.5,141.5,155.5,141.5,155.5,141.5C155.5,141.4,155.5,141.4,155.5,141.5
		C155.5,141.4,155.5,141.4,155.5,141.5z"/>
	<path fill="#FFFFFF" d="M103.4,58c-21.8,6.7-37,25.5-39.2,48.1c-0.4,3.8,0.5,5,4.6,5c34-0.2,68-0.2,101.9,0c4.1,0,4.7-1.3,4.2-4.8
		c-2.9-23-14.9-39.1-36.6-47.4c-4-1.5-8.1-2.3-8.8-7.7c-0.2-1.4-1.7-3-3.1-3.7c-2.8-1.4-2.9-3.6-2.9-6.2c0.1-11.5-0.1-23,0.1-34.5
		c0-3.1-0.9-5.3-3.6-6.8c-0.3,0-0.7,0-1,0c-2.5,1.4-3.3,3.4-3.3,6.4c0.2,10.7,0.1,21.3,0.1,32c0,3.9,0.6,7.9-4.2,10
		c-1.6,0.7-2.6,2.7-2.8,4.5C108.5,56.4,106.1,57.1,103.4,58z"/>
	<path fill="#FFFFFF" d="M241,149c0-0.7,0-1.3,0-2c-1.4-1.1-1.8-3.2-4.5-3.2c-17.3,0.1-34.6,0.1-52,0.1c-1.9,0-3.2,0.7-3.9,2.4
		c-0.8,1.9-0.1,3.5,1.3,4.3c2.1,1.1,2,2.7,2,4.6c0,20.1,0,40.3,0,60.4c0,1.2,0.6,2.8-0.9,3.6c-2.1,1.2-3.4,2.6-2.4,5.2
		c1.1,2.9,3.6,2.5,5.9,2.5c15.8,0,31.6-0.1,47.5,0.1c2.6,0,4.8-0.7,7-2.1c0-1,0-2,0-3c-3.9-2.2-4.3-5.7-4.3-9.9
		c0.2-18.1,0.2-36.1,0-54.2C236.7,154,237.3,150.9,241,149z M195.5,193.3c-2.6,0-3.6-1.9-3.6-4.4c0-10.9,0-21.9,0-32.8
		c0-2.5,1-4.4,3.6-4.4c2.7,0,3.6,1.8,3.6,4.4c-0.1,5.5,0,10.9,0,16.4c0,5.5,0,10.9,0,16.4C199.1,191.4,198.1,193.3,195.5,193.3z
		 M214,173c0,5.3,0,10.6,0,15.9c0,2.5-0.9,4.4-3.6,4.4c-2.6,0-3.6-1.9-3.6-4.4c0-10.9,0-21.9,0-32.8c0-2.5,1-4.4,3.6-4.4
		c2.7,0,3.6,1.9,3.5,4.4C214,161.7,214,167.4,214,173z M225.5,193.3c-2.6,0-3.6-1.9-3.6-4.4c0-10.9,0-21.9,0-32.8
		c0-2.5,1-4.4,3.6-4.4c2.7,0,3.6,1.8,3.6,4.4c-0.1,5.6,0,11.3,0,16.9c0,5.3,0,10.6,0,15.9C229.1,191.4,228.2,193.3,225.5,193.3z"/>
	<path fill="#FFFFFF" d="M61.1,25.3c0,2.7,1.3,4.2,3.9,4.7c4,0.8,8,0.6,12,0.2c9.5-1.1,18.8-4,28.6-2.1c2.7,0.5,3-1.6,3-3.6
		c0-5.9,0-11.8,0-17.7c0-4.5-1.3-5.7-5.9-6.2C99.8,0.4,96.8,1.3,94,0c-0.2,0-0.4,0-0.6,0c-1,1.2-2.5,0.8-3.7,0.9
		c-8.4,1.3-16.8,3.4-25.5,1.7C62,2.2,61,3.5,61,5.7C61.1,12.2,61.1,18.8,61.1,25.3z"/>
	<path fill="#FFFFFF" d="M178.3,228.2c-2.5-1.1-1.4-3.2-1.4-4.8c0-12.8-0.1-25.7-0.1-38.5c0-12.8,0-25.7,0-38.5v0c0-0.6,0-1.3,0-1.9
		c0-1.8,0.3-3.5,2.6-4.9c0.9-0.6,1.3-1.5,1.3-2.4c0-1.5-1.2-3.2-3.1-3.8c-1.1-0.3-2.3-0.3-3.4-0.3c-35.8,0-71.6,0-107.5,0
		c-0.2,0-0.4,0-0.6,0c0,0-0.1,0-0.1,0c-0.2,0-0.4,0-0.7,0c-0.1,0-0.1,0-0.2,0c0,0-0.1,0-0.1,0c-0.2,0-0.5,0-0.7,0.1c0,0-0.1,0-0.1,0
		c-1.7,0.3-3.1,1-3.7,2.9c0,0,0,0,0,0c0,0.2-0.1,0.4-0.1,0.5c0,0.3-0.1,0.6-0.1,0.8c0,0.1,0,0.2,0,0.2c0.1,1.2,0.7,2.2,1.8,2.7
		c1.4,0.6,1.7,1.4,1.8,2.4c0,0.2,0,0.3,0,0.5c0,0.4,0,0.8,0,1.2c0,0,0,0,0,0c0,13.3,0,26.6,0,40c0,13.3,0,26.7,0,40c0,0,0,0,0,0
		c0,0.6,0.2,1.3,0.2,1.9c0,0.3-0.1,0.6-0.2,0.9c0,0,0,0,0,0c-0.1,0.1-0.2,0.2-0.3,0.3c0,0-0.1,0.1-0.1,0.1c-0.1,0.1-0.3,0.2-0.5,0.3
		c-1.7,0.8-2.7,1.9-2.7,3.5c0,0.5,0.1,1.1,0.4,1.7c1,2.7,3.4,2.5,5.5,2.5c18,0,36,0.3,54,0.3c8,0,16,0,24,0c10.3,0,20.7-0.2,31-0.2
		c2,0,4.2,0,5-2.4c0.2-0.6,0.3-1.1,0.3-1.7C180.6,230.2,179.9,228.9,178.3,228.2z M84.9,228.1c-8-0.2-8,0-8-8.2
		c0-22.8,0-45.6,0-68.4c0-1.3,0-2.7,0-4c0.1-1.2,0.3-2.3,0.7-3.2c0.2-0.4,0.4-0.7,0.6-1c0.1-0.2,0.2-0.3,0.4-0.4
		c1-1.1,2.5-1.7,4.5-1.7h0c0.6,0,1.2,0.1,1.7,0.2c1.5,0.4,2.7,1.2,3.4,2.5c0.6,1,0.9,2.3,0.9,3.8c0,7.7,0,15.3,0,23
		c0,5.3,0,10.6,0,16c0,12.3-0.1,24.6,0.1,36.9C89.1,226.9,88.6,228.2,84.9,228.1z M110.9,228.1c-9,0.3-9,0.4-9-8.6c0-11,0-22,0-32.9
		c0-12.6-0.1-25.3,0-37.9c0-6,4.5-9.2,9-6.6c2.3,1.3,3.2,3.2,3.2,5.8c0,25.8,0,51.6,0,77.3C114.1,227.6,113.1,228,110.9,228.1z
		 M134.8,228.1c-8-0.2-8,0-8-8.2c0-22.8,0-45.6,0-68.4c0-1.3,0-2.7,0-4c0.1-1,0.2-1.9,0.5-2.7c0.1-0.4,0.3-0.8,0.5-1.1
		c0.2-0.3,0.4-0.6,0.7-0.9c0.5-0.6,1.1-1,1.9-1.3c0.7-0.3,1.6-0.4,2.6-0.4h0c0.5,0,0.9,0.1,1.4,0.1c0.4,0.1,0.8,0.2,1.2,0.4
		c0.6,0.2,1,0.5,1.5,0.9s0.8,0.8,1.1,1.3c0.6,1,0.9,2.3,0.9,3.8c0,8.5,0,17,0,25.4c0,4.3,0,8.6,0,13c0,12.5-0.1,25,0.1,37.4
		C139.2,227,138.5,228.2,134.8,228.1z M164.1,224.2c0,0.3,0,0.5,0,0.8c0,0.1,0,0.2,0,0.2c0,0.3-0.1,0.5-0.1,0.7
		c0,0.2-0.1,0.4-0.1,0.5c-0.4,1.1-1.3,1.6-3.2,1.7c-0.2,0-0.4,0-0.7,0c-8-0.2-8,0-8-8.1c0-22.6,0-45.2,0-67.9c0-1.3-0.1-2.7-0.1-4
		c0,0,0,0,0,0c0,0,0-0.1,0-0.1c0-0.2,0-0.3,0-0.5c0-0.2,0-0.4,0-0.6c0-0.3,0.1-0.5,0.1-0.8c0,0,0-0.1,0-0.1c0.3-1.8,1.1-3.2,2.3-4.1
		c-0.1,0-0.1,0.1-0.2,0.1c0.3-0.2,0.7-0.4,1.1-0.6c0,0,0,0,0,0c0.1,0,0.1-0.1,0.2-0.1c0,0,0,0,0,0c0,0,0,0,0.1,0c0,0,0,0-0.1,0
		c0.3-0.1,0.6-0.2,0.9-0.3c0.1,0,0.2-0.1,0.4-0.1c0.4-0.1,0.8-0.1,1.3-0.1c0,0,0,0,0,0c0,0,0,0,0,0c4.1,0,6,2.9,6,7.1
		c0,6.4,0,12.8,0,19.3c0,6.4,0,12.8,0,19.2c0,0,0,0,0,0c0,6.2,0,12.3,0,18.5c0-6.1,0-12.3,0-18.4c0,6.1,0,12.3,0,18.4
		c0,6.2,0,12.3,0.1,18.5C164.1,223.7,164.1,223.9,164.1,224.2C164.1,224.1,164.1,224.1,164.1,224.2z"/>
	<path fill="#FFFFFF" d="M58.4,219.8c-1.9-1-1.9-2.5-1.8-4.2c0-20.1,0-40.3,0-60.4c0-1.6-0.3-3.3,1.8-4.2c2-0.9,2.1-2.9,1.6-4.7
		c-0.6-1.9-2.1-2.4-3.9-2.4c-17.1,0-34.3,0-51.4,0c-2.1,0-3.6,0.7-4.3,2.7c-0.6,1.8,0,3.5,1.6,4.3c1.9,0.9,2,2.3,2,4.1
		c0,20.3,0,40.6,0,60.9c0,1.5,0.2,2.9-1.6,3.7c-1.8,0.9-2.7,2.6-2,4.6C1,226.3,2.7,227,5,227c8.3-0.1,16.6,0,25,0c8.5,0,17,0,25.5,0
		c2,0,3.7-0.5,4.5-2.4C60.6,222.7,60.3,220.8,58.4,219.8z M18.9,172.7c0,5.3,0,10.6,0,15.9c0,2.6-0.9,4.8-3.9,4.7
		c-2.7-0.1-3.5-2.2-3.5-4.6c0-10.8,0-21.6,0-32.4c0-2.6,1-4.9,3.9-4.7c2.9,0.2,3.5,2.5,3.5,5.1C18.8,162.1,18.9,167.4,18.9,172.7z
		 M30.4,193.3c-3.3,0.1-3.9-2.5-3.9-5.2c0-10.5,0-20.9,0-31.4c0-2.5,0.6-5,3.6-5c3.3-0.1,3.8,2.5,3.8,5.2c0,5.3,0,10.6,0,15.9
		c0,5,0,10,0,14.9C33.9,190.5,33.6,193.2,30.4,193.3z M45.3,193.4c-3,0.1-3.8-2.2-3.9-4.8c0-10.8,0-21.6,0-32.4
		c0-2.4,0.9-4.5,3.6-4.5c3,0,3.8,2.1,3.8,4.7c0,5.5,0,11,0,16.4c0,5.1,0,10.3,0,15.4C48.9,190.9,48.3,193.2,45.3,193.4z"/>
	<path fill="#FFFFFF" d="M66.6,126c17.6,0,35.3,0,52.9,0c17.8,0,35.6,0,53.4,0c2.4,0,4.8,0.1,5.7-2.8c0.9-2.9-1.6-5.1-6.1-5.1
		c-35.3,0-70.6,0-105.8,0c-3,0-6.2,0.3-6.2,4C60.4,126.2,63.6,126,66.6,126z"/>
</g>
</svg>
