<?xml version="1.0" encoding="utf-8"?>
<!-- Generator: Adobe Illustrator 18.0.0, SVG Export Plug-In . SVG Version: 6.00 Build 0)  -->
<!DOCTYPE svg PUBLIC "-//W3C//DTD SVG 1.1//EN" "http://www.w3.org/Graphics/SVG/1.1/DTD/svg11.dtd">
<svg version="1.1" id="Layer_1" xmlns="http://www.w3.org/2000/svg" xmlns:xlink="http://www.w3.org/1999/xlink" x="0px" y="0px"
	 viewBox="0 0 394.1 394" enable-background="new 0 0 394.1 394" xml:space="preserve">
<g id="a1YU6J.tif">
	<g>
		<path fill="#FFFFFF" d="M266.6,327.1c-15.6-25-31.3-50.1-47.1-75.3c-15.1,5.8-29.9,5.8-44.9,0c-15.8,25.3-31.5,50.4-47.3,75.6
			c8.5,10.2,12.3,21.4,10,34.5c-3.3,18.3-20.4,32.4-39.1,32.2c-19.2-0.3-35.9-14.8-38.5-33.4c-3.8-27.9,19.7-50.2,47.1-44.5
			c2.9,0.6,4.1-0.1,5.5-2.4c14.4-23.2,28.9-46.3,43.3-69.6c0.8-1.3,0.9-4,0.1-5c-14.6-17.8-16.6-22.9-18-46.7
			c-10.4-2.6-21-5.3-31.6-7.9c-9.4-2.3-18.7-4.6-28.1-7.1c-2.8-0.7-4.4-0.4-6.2,2.2C62.1,193.8,45.7,200,30,195.8
			c-16.7-4.4-28.1-18-29.8-35.5c-1.5-15.7,7.9-31.5,23-38.7c23.2-11.1,51.8,4.4,55.1,30.1c0.5,4,1.8,5.9,6,6.9
			c18.3,4.2,36.5,8.9,54.8,13.5c2.3,0.6,3.9,1,5.3-1.7c8.5-16.5,22-26.8,40-31.1c0.8-0.2,1.5-0.5,2.6-0.9c0-19.5,0.1-39-0.2-58.5
			c0-1.3-2-3.1-3.5-3.7c-19.9-7.7-30.2-28.5-23.8-48.7c6-19.2,24.9-30.4,45-26.8c19,3.4,33,21.1,31.7,40.7
			c-1.1,17-10,28.4-25.6,34.9c-1.5,0.6-3.4,2.5-3.4,3.8c-0.2,19.3-0.1,38.6-0.1,57.2c8.1,3.8,16,6.8,23.2,11.1
			c8.3,4.9,14.5,12.2,18.8,20.9c1.6,3.2,3.2,3.7,6.6,2.8c18.2-4.7,36.4-9.3,54.7-13.6c3.6-0.8,4.8-2.4,5.3-5.8
			c2.8-20,18.6-34,38.4-34.6c28.8-0.8,49,31.3,35.8,56.9c-14.1,27.4-49.8,29.9-68,4.7c-0.9-1.3-3.3-2.6-4.6-2.3
			c-20.3,4.9-40.6,10-60.4,15c-1,6.9-1.5,13.4-2.8,19.7c-2.3,10.2-7.7,18.7-14.9,26.1c-1.5,1.6-3,2.7-1.3,5.4
			c15.2,24.1,30.3,48.2,45.4,72.4c0.2,0.3,0.5,0.4,0.7,0.6c23.4-3.7,41,4.8,48.1,23.1c6.8,17.6,0.7,37.4-14.7,47.7
			c-15.6,10.3-36.3,8.3-49.6-4.7C253.1,368.1,252.6,349.1,266.6,327.1z"/>
	</g>
</g>
</svg>
